Coordinates
version=1
nRows=24
nColumns=24
inDegrees=yes

Units are S.I. units (second, meters, Newtons, ...)
Angles are in degrees.

endheader
time	pelvis_tilt	pelvis_list	pelvis_rotation	pelvis_tx	pelvis_ty	pelvis_tz	hip_flexion_r	hip_adduction_r	hip_rotation_r	knee_angle_r	ankle_angle_r	subtalar_angle_r	mtp_angle_r	hip_flexion_l	hip_adduction_l	hip_rotation_l	knee_angle_l	ankle_angle_l	subtalar_angle_l	mtp_angle_l	lumbar_extension	lumbar_bending	lumbar_rotation
      0.69983333	     -1.74459881	     -2.89964384	      2.86137952	     -0.39849437	      1.00792268	      0.27839819	      8.13847793	      6.36185384	      0.74295205	    -20.31728972	     14.34394482	     -6.31462180	     -4.27775215	     13.85544233	     -4.20964088	      0.50640723	    -66.64383076	     -7.84414457	      1.38070633	      1.70184354	    -10.93801798	     11.17514020	     -2.99614154
      0.70400000	     -1.74775271	     -2.73694379	      2.82552810	     -0.39367924	      1.00879445	      0.27851703	      7.68004708	      6.21702887	      0.79878343	    -19.98403884	     14.23461101	     -6.34925113	     -4.28210070	     14.28687514	     -4.03373112	      0.50261166	    -66.48182718	     -7.00245271	      0.95589549	      1.70923100	    -10.99104525	     10.91470993	     -2.82956438
      0.70816667	     -1.70102628	     -2.58010006	      2.77084205	     -0.38879912	      1.00977509	      0.27867056	      7.13012008	      6.08932824	      0.91720503	    -19.57084533	     14.08466031	     -6.48576596	     -4.28515691	     14.63519848	     -3.87655310	      0.47022930	    -66.23224106	     -6.18605382	      0.56129006	      1.70055091	    -11.09617018	     10.63321956	     -2.40854672
      0.71233333	     -1.71223482	     -2.42460557	      2.71959914	     -0.38398683	      1.01063831	      0.27880066	      6.67775638	      5.95039850	      0.99059616	    -19.22433363	     13.93804275	     -6.53494238	     -4.28524223	     15.05401742	     -3.71312430	      0.44197819	    -65.95499455	     -5.32306020	      0.16087862	      1.69468080	    -11.14654232	     10.36554848	     -2.20628770
      0.71650000	     -1.67857244	     -2.23869426	      2.64613294	     -0.37909758	      1.01162167	      0.27893753	      6.14910910	      5.78152108	      1.10337581	    -18.82796332	     13.77860392	     -6.63248135	     -4.27930922	     15.38343263	     -3.52109191	      0.38325416	    -65.57381976	     -4.50238993	     -0.22491629	      1.66378473	    -11.22497923	     10.06989666	     -1.83466543
      0.72066667	     -1.66963674	     -2.08165490	      2.57360374	     -0.37424704	      1.01254666	      0.27908017	      5.65674168	      5.64095500	      1.21302069	    -18.43964624	     13.59218962	     -6.71121784	     -4.26764195	     15.74306904	     -3.36427658	      0.32310753	    -65.16002754	     -3.65429839	     -0.58173423	      1.61582454	    -11.29112275	      9.80099721	     -1.52624314
      0.72483333	     -1.65461098	     -1.91558899	      2.50615828	     -0.36941435	      1.01346832	      0.27919034	      5.16691290	      5.48358672	      1.30033585	    -18.06796459	     13.40596378	     -6.75985597	     -4.25512414	     16.08708691	     -3.19034780	      0.27054685	    -64.69128469	     -2.81792105	     -0.94141581	      1.56660177	    -11.37282467	      9.51848468	     -1.27906992
      0.72900000	     -1.62458677	     -1.73878166	      2.41998869	     -0.36454248	      1.01441535	      0.27929914	      4.65788285	      5.31158537	      1.39770021	    -17.69342745	     13.21515042	     -6.80999710	     -4.23531054	     16.38810303	     -3.01025636	      0.18961565	    -64.14671492	     -2.00669344	     -1.29210331	      1.49132696	    -11.44860691	      9.24171416	     -0.97371383
      0.73316667	     -1.59348946	     -1.58527194	      2.32289144	     -0.35968043	      1.01535857	      0.27942385	      4.14647774	      5.16492677	      1.52113989	    -17.30798434	     12.99432324	     -6.85060773	     -4.19778824	     16.67965094	     -2.86175660	      0.09706649	    -63.55591838	     -1.20541938	     -1.63314542	      1.35717998	    -11.54260181	      8.98847480	     -0.66201760
      0.73733333	     -1.56439878	     -1.39859474	      2.24947884	     -0.35482061	      1.01629115	      0.27948664	      3.64572146	      4.97232825	      1.59126772	    -16.94321594	     12.79608796	     -6.87182589	     -4.16519722	     16.95841871	     -2.65876611	      0.03633364	    -62.89780528	     -0.44240431	     -1.95793120	      1.23943200	    -11.62476132	      8.68947711	     -0.42379975
      0.74150000	     -1.52991549	     -1.23195031	      2.16484264	     -0.34995057	      1.01721990	      0.27953602	      3.14207953	      4.79745185	      1.66528519	    -16.57840976	     12.56628152	     -6.89525880	     -4.13238386	     17.21575521	     -2.47801837	     -0.02953105	    -62.18535354	      0.30369970	     -2.27068223	      1.11830587	    -11.70101757	      8.43982620	     -0.17074029
      0.74566667	     -1.54415624	     -1.06242552	      2.08206275	     -0.34510347	      1.01804634	      0.27956583	      2.71262513	      4.61272867	      1.72066553	    -16.25792819	     12.33869473	     -6.88124780	     -4.10889339	     17.52109343	     -2.28996251	     -0.09709870	    -61.43323251	      1.02368538	     -2.58686083	      1.02990655	    -11.73443747	      8.19377004	      0.00945915
      0.74983333	     -1.47523091	     -0.89913748	      2.00069515	     -0.34021455	      1.01899561	      0.27961353	      2.15612561	      4.44150925	      1.82533675	    -15.85837022	     12.12863741	     -6.89178401	     -4.06132217	     17.71217531	     -2.11389199	     -0.16304266	    -60.60873983	      1.66410072	     -2.89997783	      0.85843586	    -11.86512878	      7.90553661	      0.32700234
      0.75400000	     -1.43302032	     -0.72732506	      1.91890523	     -0.33533919	      1.01988856	      0.27961132	      1.65210313	      4.25113813	      1.89285928	    -15.50515834	     11.89791774	     -6.88630942	     -4.00580442	     17.91775283	     -1.91721837	     -0.21969720	    -59.73103618	      2.28298193	     -3.20923040	      0.66401376	    -11.95524621	      7.64355186	      0.57666903
      0.75816667	     -1.39145497	     -0.57014348	      1.84107451	     -0.33046808	      1.02074003	      0.27959432	      1.15400494	      4.07404598	      1.95658932	    -15.16026706	     11.66377994	     -6.87025416	     -3.94255955	     18.11478062	     -1.73353282	     -0.26807512	    -58.81252169	      2.87277579	     -3.50544144	      0.44849331	    -12.04783703	      7.40067510	      0.80978222
      0.76233333	     -1.35960789	     -0.39200300	      1.76112326	     -0.32559032	      1.02157598	      0.27955176	      0.67463054	      3.86852257	      2.00827232	    -14.83260298	     11.43891292	     -6.83419098	     -3.87207332	     18.29997193	     -1.51780480	     -0.30936718	    -57.82835966	      3.40640092	     -3.81779125	      0.21516307	    -12.12387914	      7.13696614	      1.02915235
      0.76650000	     -1.35334082	     -0.25997540	      1.67605436	     -0.32072160	      1.02232259	      0.27951692	      0.22502666	      3.71521857	      2.09325350	    -14.49746841	     11.12317478	     -6.89165128	     -2.62114190	     18.51213652	     -1.35385917	     -0.34593321	    -56.83186741	      4.00422585	     -4.05643021	     -3.47908765	    -12.16782384	      6.93257176	      1.24837552
      0.77066667	     -1.30694162	     -0.08705634	      1.61744466	     -0.31583804	      1.02311622	      0.27939808	     -0.25898189	      3.50696750	      2.09801503	    -14.19368994	     10.92947540	     -6.79700567	     -2.60035077	     18.65393251	     -1.12774980	     -0.35072504	    -55.75283126	      4.46860968	     -4.34115119	     -3.49316300	    -12.25594405	      6.68782083	      1.40934863
      0.77483333	     -1.30875616	      0.07135231	      1.54814710	     -0.31096632	      1.02380828	      0.27929510	     -0.67116023	      3.31423590	      2.11632909	    -13.92488253	     10.67320411	     -6.75437151	     -2.58435328	     18.83518538	     -0.91682280	     -0.35285608	    -54.63196049	      4.89390912	     -4.61583740	     -3.51672514	    -12.28371394	      6.46515728	      1.56241986
      0.77900000	     -1.23455635	      0.22915901	      1.48009125	     -0.30606355	      1.02459672	      0.27918241	     -1.19673706	      3.12516722	      2.17200800	    -13.58992378	     10.46410609	     -6.71439121	     -2.55176139	     18.90954511	     -0.70628574	     -0.35389521	    -53.44972611	      5.24386204	     -4.94624292	     -3.57267023	    -12.41029857	      6.22692202	      1.78126073
      0.78316667	     -1.22253675	      0.37150416	      1.41395949	     -0.30117756	      1.02523357	      0.27905612	     -1.62796107	      2.94953965	      2.21122340	    -13.30956618	     10.23386874	     -6.68083421	     -2.51071892	     19.04453036	     -0.50682115	     -0.33829758	    -52.24054940	      5.58617179	     -5.23674623	     -3.64820532	    -12.46058167	      6.01476023	      1.96873182
      0.78733333	     -1.17694254	      0.52627655	      1.35111196	     -0.29627733	      1.02590041	      0.27891835	     -2.09557097	      2.75967650	      2.24233819	    -13.02992538	     10.00673434	     -6.64738015	     -2.46684771	     19.11812999	     -0.29116427	     -0.31364153	    -50.96874514	      5.88047127	     -5.52965994	     -3.73458431	    -12.53982029	      5.79099981	      2.13399461
      0.79150000	     -1.16684033	      0.66790265	      1.28879731	     -0.29137340	      1.02648594	      0.27876142	     -2.51761933	      2.58201613	      2.27945174	    -12.76365881	      9.77540161	     -6.62445574	     -2.41511210	     19.21597586	     -0.08511568	     -0.27785679	    -49.65853916	      6.13711655	     -5.82641355	     -3.83845134	    -12.58640389	      5.58521558	      2.30056451
      0.79566667	     -1.13772890	      0.80735658	      1.23053408	     -0.28646892	      1.02706471	      0.27859634	     -2.95557920	      2.40753641	      2.31303419	    -12.50532376	      9.54712691	     -6.60360880	     -2.36030229	     19.27384785	      0.12135530	     -0.22849510	    -48.29872199	      6.36033215	     -6.11112178	     -3.95003889	    -12.64679787	      5.38308587	      2.45115877
